# xmcd
#
# Track frame offsets: 
#        150
#        17386
#        27646
#        47567
#        61419
#        86119
#        111241
#        132864
#        147649
#        168515
#        179348
#        199087
#        220924
#        244242
#        258663
#        271644
#        288657
#        302071
#        320797
#
# Disc length: 4700 seconds
#
# Revision: 0
# Processed by: cddbd v1.5.2PL0 Copyright (c) Steve Scherf et al.
# Submitted via: ExactAudioCopy v0.99pb3
#
DISCID=27125a13
DTITLE=Modern Style Of The Blues - The ways of the blues N°6
DYEAR=2004
DGENRE=Blues
TTITLE0=I'm a king bee , Muddy Waters
TTITLE1=Am I wrong , Keb' Mo'
TTITLE2=Goin' down( take 4) , Luther Allison
TTITLE3=When I feel the see beneath my soul , Taj Mahal
TTITLE4=Shuggie's boogie , Shuggie Otis
TTITLE5=Drowning on a dry land , Jimmy Johnson
TTITLE6=I feel so good , J.B. Hutto
TTITLE7=The getaway , Fenton Robinson
TTITLE8=Long shadows , Elvin Bishop
TTITLE9=I put a spell on you , Screamin' Jay Hawkins
TTITLE10=I'll try , Champion Jack Dupree
TTITLE11=I couldn't quit my baby , Bobby Parker
TTITLE12=Temperature is rising , Otis Spann and Fleetwood Mac
TTITLE13=I'd rather go blind , Chicken Shack
TTITLE14=I'm gonna wind up ending up or I'm gonna end uo winding up wi
TTITLE14=th you , Duster Bennett
TTITLE15=Boom boom (out goes the light) , Bacon Fat
TTITLE16=Voodoo Rythm , Key Largo
TTITLE17=Killing floor , The Electric Flag
TTITLE18=Done changed my way of living , Taj Mahal
EXTD=
EXTT0=
EXTT1=
EXTT2=
EXTT3=
EXTT4=
EXTT5=
EXTT6=
EXTT7=
EXTT8=
EXTT9=
EXTT10=
EXTT11=
EXTT12=
EXTT13=
EXTT14=
EXTT15=
EXTT16=
EXTT17=
EXTT18=
PLAYORDER=
